<svg viewBox="0 0 52 52" xml:space="preserve" xmlns="http://www.w3.org/2000/svg" enable-background="new 0 0 52 52"><path d="M2.245 2.657c2.478.198 3.442.637 4.5 3.33.36.918.232 2.544.373 3.537.4 2.814 1.168 5.154 2.325 7.714 2.91 6.436 2.362 13.794 5.286 20.165 1.85 4.029 7.306 2.643 10.966 2.64l23.711-.014c1.448-.001 1.45-2.251 0-2.25l-22.762.014c-1.828.001-3.872.26-5.69.004-2.753-.389-3.54-.64-4.685-3.05-1.46-3.069-1.604-7.362-2.15-10.656-.452-2.723-1.2-4.943-2.405-7.385-1.93-3.912-2.263-7.237-2.8-11.527C8.295.215 6.555.751 2.246.407.802.292.81 2.543 2.245 2.657z" fill="#ffffff" class="fill-231f20"></path><path d="M9.156 13.504c13.526-.079 27.052-.118 40.578-.117l-.971-1.693c-1.46 3-3.603 5.37-5.26 8.214-1.567 2.692-2.397 5.816-4.214 8.377-2.865 4.038-7.887 3.16-12.304 3.206l-11.743.12c-1.447.015-1.45 2.265 0 2.25l15.658-.16c2.546-.026 5.91.7 8.016-.934 2.501-1.94 3.969-6.35 5.287-9.117 1.824-3.83 4.636-6.986 6.503-10.82.365-.75-.07-1.693-.972-1.693-13.526 0-27.052.038-40.578.117-1.448.008-1.45 2.258 0 2.25zM27.189 45.399c.293.085.203 1.244.195 1.473-.032.824-.344 1.463-1.048 1.896-.957.588-2.524.897-3.255-.08-.322-.43-.299-.57-.301-1.214-.003-.63-.172-1.562.031-2.159.296-.868 1.405-.981 2.174-1.028.948-.058 1.616.034 2.314.697 1.05.997 2.644-.592 1.591-1.591-1.18-1.12-2.277-1.437-3.905-1.356-1.38.068-2.775.392-3.709 1.49-.939 1.104-.751 2.597-.746 3.947.006 1.569.197 2.137 1.306 3.215 1.786 1.736 5.41.757 6.87-1.04 1.359-1.673 1.588-5.696-.92-6.42-1.393-.403-1.988 1.768-.597 2.17zM41.434 44.616c.53-.225 1.935-.642 2.47-.175.359.313.42 1.17.46 1.623.113 1.268.31 2.658-1.3 2.706-1.223.036-2.953.326-3.61-.941-.712-1.375.919-2.609 1.98-3.213 1.258-.716.126-2.66-1.136-1.943-2.257 1.285-4.213 3.524-2.864 6.168.591 1.16 1.602 1.929 2.89 2.105 1.283.176 2.963.265 4.227-.106 2.517-.738 2.393-4.159 1.843-6.214-.802-2.99-3.617-3.003-6.096-1.953-1.329.563-.183 2.502 1.136 1.943z" fill="#ffffff" class="fill-231f20"></path></svg>