<svg data-name="Capa 1" viewBox="0 0 20 19.84" xmlns="http://www.w3.org/2000/svg"><path d="M15.8 9.65A1.88 1.88 0 0 0 14.69 9l.67-.86a.45.45 0 0 0-.08-.64.46.46 0 0 0-.64.08L13.58 9H6.34L5.17 7.64a.46.46 0 0 0-.64 0 .45.45 0 0 0 0 .64l.65.72A1.91 1.91 0 0 0 4 9.88a2 2 0 0 0-.26 1.47l.72 4.37a1.92 1.92 0 0 0 1.82 1.69h7.42a1.89 1.89 0 0 0 1.79-1.66l.73-4.38a2.36 2.36 0 0 0 0-.28 1.94 1.94 0 0 0-.42-1.44Zm-.48 1.55-.73 4.42a1 1 0 0 1-.92.88H6.35a1 1 0 0 1-.94-.9l-.73-4.43a1 1 0 0 1 .13-.81 1.1 1.1 0 0 1 .67-.48H14.37a1.07 1.07 0 0 1 .73.38 1.05 1.05 0 0 1 .25.78.74.74 0 0 1-.03.16Z" fill="#ffffff" class="fill-000000"></path><path d="M7.52 11.52a.47.47 0 0 0-.46.46v2.63a.46.46 0 0 0 .92 0V12a.47.47 0 0 0-.46-.48ZM9.93 11.52a.46.46 0 0 0-.46.46v2.63a.46.46 0 0 0 .91 0V12a.46.46 0 0 0-.45-.48ZM12.4 11.52a.46.46 0 0 0-.4.48v2.63a.46.46 0 0 0 .91 0V12a.46.46 0 0 0-.51-.48ZM9.59 8.57a.46.46 0 0 0 .68 0l2.81-3.11a.45.45 0 0 0 0-.64.46.46 0 0 0-.65 0L10.41 7V2.89a.46.46 0 1 0-.91 0V7.1l-2-2.25a.46.46 0 0 0-.68.61Z" fill="#ffffff" class="fill-000000"></path></svg>