<svg viewBox="0 0 50 50" xml:space="preserve" xmlns="http://www.w3.org/2000/svg" enable-background="new 0 0 50 50"><path d="M15 49h34V5H35V1H21v12h-6V1H1v48h14zM47 7v40H35V7h12zM23 3h10v44H23V3zm-2 12v32h-6V15h6zM3 47V3h10v44H3z" fill="#ffffff" class="fill-000000"></path><path d="M5 43h6v2H5zM5 38h6v2H5zM5 33h6v2H5zM37 43h8v2h-8zM37 38h8v2h-8zM37 33h8v2h-8zM25 31h6v2h-6zM25 35h6v2h-6zM25 6h6v2h-6zM25 10h6v2h-6zM25 39h6v2h-6zM25 43h6v2h-6zM7 7h2v2H7zM40 11h2v2h-2z" fill="#ffffff" class="fill-000000"></path></svg>